<?xml version="1.0" encoding="UTF-8" standalone="no"?>
<!-- Created with Inkscape (http://www.inkscape.org/) -->

<svg
   xmlns:dc="http://purl.org/dc/elements/1.1/"
   xmlns:cc="http://creativecommons.org/ns#"
   xmlns:rdf="http://www.w3.org/1999/02/22-rdf-syntax-ns#"
   xmlns:svg="http://www.w3.org/2000/svg"
   xmlns="http://www.w3.org/2000/svg"
   xmlns:sodipodi="http://sodipodi.sourceforge.net/DTD/sodipodi-0.dtd"
   xmlns:inkscape="http://www.inkscape.org/namespaces/inkscape"
   version="1.1"
   id="svg2"
   xml:space="preserve"
   width="205.25333"
   height="92.239998"
   viewBox="0 0 205.25333 92.239998"
   sodipodi:docname="LOGO_final_bild.svg"
   inkscape:version="0.92.1 r"><metadata
     id="metadata8"><rdf:RDF><cc:Work
         rdf:about=""><dc:format>image/svg+xml</dc:format><dc:type
           rdf:resource="http://purl.org/dc/dcmitype/StillImage" /><dc:title></dc:title></cc:Work></rdf:RDF></metadata><defs
     id="defs6" /><sodipodi:namedview
     pagecolor="#ffffff"
     bordercolor="#666666"
     borderopacity="1"
     objecttolerance="10"
     gridtolerance="10"
     guidetolerance="10"
     inkscape:pageopacity="0"
     inkscape:pageshadow="2"
     inkscape:window-width="1916"
     inkscape:window-height="1037"
     id="namedview4"
     showgrid="false"
     inkscape:zoom="3.790438"
     inkscape:cx="46.045275"
     inkscape:cy="39.230643"
     inkscape:window-x="0"
     inkscape:window-y="41"
     inkscape:window-maximized="0"
     inkscape:current-layer="g10" /><g
     id="g10"
     inkscape:groupmode="layer"
     inkscape:label="ink_ext_XXXXXX"
     transform="matrix(1.3333333,0,0,-1.3333333,0,92.24)"><g
       id="g12"
       transform="scale(0.1)"><path
         d="M 0.121094,45.9258 104.055,45.6328 c 47.703,-0.1875 93.226,9.8438 131.906,35.5938 v 0 c 46.309,30.8394 74.082,82.4214 74.082,137.6174 v 0 c 0,43.972 -22.422,84.98 -59.637,109.07 l -89.308,57.813 c -27.676,17.914 -45.325,47.558 -47.735,80.175 l -1.273,17.18 c -3.641,49.356 19.398,96.926 60.582,125.059 v 0 c 36.269,24.773 79.316,38.047 123.406,38.047 h 591.387"
         style="fill:none;stroke:#2a2c2d;stroke-width:90;stroke-linecap:butt;stroke-linejoin:miter;stroke-miterlimit:10;stroke-dasharray:none;stroke-opacity:1"
         id="path14"
         inkscape:connector-curvature="0" /><path
         d="M 656.098,601.254 748.188,115.25 651.051,-0.00390625 537.074,601.254 h 119.024"
         style="fill:#63adae;fill-opacity:1;fill-rule:nonzero;stroke:none"
         id="path16"
         inkscape:connector-curvature="0" /><path
         d="M 638.277,67.4063 C 624.73,138.836 626.156,131.324 625.375,135.465 l 197.863,254.93 c 44.727,52.793 95.196,100.441 150.469,142.062 l 1.004,0.754 c 139.499,105.051 334.819,158.605 529.849,158.605 h 34.79 v -107.98 l -53.33,0.113 c -94.55,0 -180.86,-13.902 -260.54,-45.008 -46.42,-18.125 -91.4,-35.273 -136.92,-63.339 -35.25,-21.75 -42.07,-25.594 -90.869,-68.211 v 0 c -8.332,-7.289 -16.105,-15.2 -23.234,-23.664 L 651.051,-0.00390625 638.277,67.4063"
         style="fill:#4c8484;fill-opacity:1;fill-rule:nonzero;stroke:none"
         id="path18"
         inkscape:connector-curvature="0" /></g></g></svg>